<?xml version="1.0" standalone="no"?>
<!DOCTYPE svg PUBLIC "-//W3C//DTD SVG 20010904//EN"
 "http://www.w3.org/TR/2001/REC-SVG-20010904/DTD/svg10.dtd">
<svg version="1.0" xmlns="http://www.w3.org/2000/svg"
 width="500.000000pt" height="500.000000pt" viewBox="0 0 500.000000 500.000000"
 preserveAspectRatio="xMidYMid meet">

<g transform="translate(0.000000,500.000000) scale(0.100000,-0.100000)"
fill="#000000" stroke="none">
<path d="M2333 3275 c-17 -7 -39 -25 -48 -39 -10 -15 -38 -37 -64 -49 -50 -26
-71 -55 -71 -104 0 -17 -4 -35 -10 -38 -5 -3 -14 -24 -20 -46 -6 -23 -27 -56
-46 -75 -33 -34 -40 -56 -36 -118 2 -17 -5 -38 -16 -50 -47 -51 -53 -91 -23
-150 15 -28 18 -50 15 -84 -3 -26 -1 -60 5 -76 10 -25 15 -28 40 -23 31 7 151
75 198 113 l28 23 -37 1 c-49 0 -68 -8 -68 -30 0 -21 -37 -37 -52 -22 -18 18
-4 47 25 50 15 2 27 8 27 13 0 5 29 9 64 9 48 0 70 5 87 19 l24 19 -29 31
c-27 28 -35 31 -95 31 -53 0 -69 -4 -88 -22 -35 -33 -40 -13 -5 22 25 25 38
30 78 30 66 0 51 7 -30 15 -56 5 -72 3 -87 -11 -15 -14 -21 -14 -34 -4 -36 30
-3 76 36 52 10 -7 37 -12 59 -12 l41 0 -25 25 c-14 14 -31 25 -39 25 -20 0
-40 27 -33 45 9 24 54 19 61 -7 9 -29 64 -88 82 -88 8 0 38 -26 68 -57 51 -55
54 -57 71 -41 17 17 17 19 -4 41 -18 19 -22 35 -22 83 0 58 -2 61 -45 104 -25
24 -45 52 -45 62 0 10 -5 27 -12 37 -23 37 19 78 50 48 13 -13 13 -21 4 -42
-20 -42 -14 -61 28 -95 39 -32 40 -34 40 -95 0 -46 5 -67 19 -83 10 -12 20
-22 22 -22 2 0 3 35 1 77 -3 77 -4 78 -49 124 -31 32 -44 53 -41 68 4 28 22
32 26 5 2 -11 21 -38 42 -59 39 -39 40 -40 40 -113 0 -65 2 -73 15 -62 13 10
15 52 15 260 l0 248 -31 26 c-34 29 -59 32 -106 11z m91 -151 c4 -9 0 -27 -9
-40 -8 -13 -15 -45 -15 -73 0 -40 5 -55 25 -75 14 -14 25 -28 25 -31 0 -12
-25 -3 -47 17 -19 18 -23 32 -23 85 0 35 -5 72 -12 82 -6 10 -8 26 -5 35 8 21
53 21 61 0z m-177 -40 c3 -9 1 -25 -5 -35 -7 -10 -12 -41 -12 -69 0 -43 4 -54
30 -77 21 -18 30 -36 30 -57 0 -17 9 -40 22 -53 14 -15 17 -23 8 -23 -23 0
-50 32 -50 59 0 15 -13 38 -31 57 -27 28 -32 41 -33 86 -1 29 -7 63 -14 76
-10 18 -11 26 -1 38 16 19 48 18 56 -2z m-27 -434 c0 -6 -11 -22 -25 -35 -18
-19 -35 -25 -70 -25 -25 0 -54 -5 -64 -12 -36 -22 -68 25 -36 52 12 10 20 9
40 -4 37 -24 87 -21 115 9 25 26 40 32 40 15z"/>
<path d="M2385 3110 c-3 -5 -1 -10 4 -10 6 0 11 5 11 10 0 6 -2 10 -4 10 -3 0
-8 -4 -11 -10z"/>
<path d="M2210 3070 c0 -5 5 -10 11 -10 5 0 7 5 4 10 -3 6 -8 10 -11 10 -2 0
-4 -4 -4 -10z"/>
<path d="M2035 2600 c3 -5 8 -10 11 -10 2 0 4 5 4 10 0 6 -5 10 -11 10 -5 0
-7 -4 -4 -10z"/>
<path d="M2095 3162 c-244 -137 -225 -98 -225 -466 l0 -286 23 -5 c28 -6 55
-9 85 -7 22 2 22 3 6 34 -11 22 -15 47 -11 81 3 36 -1 62 -14 91 -26 57 -23
95 10 147 19 31 29 60 29 87 1 46 12 73 53 120 16 18 29 41 29 50 0 10 7 27
15 38 8 10 15 35 15 54 0 20 7 46 16 58 18 26 10 27 -31 4z"/>
<path d="M2915 3060 c-7 -22 15 -80 39 -99 28 -24 47 -70 50 -121 1 -27 8 -55
14 -63 19 -22 42 -84 42 -112 0 -14 -7 -40 -16 -57 -10 -19 -17 -60 -18 -105
-2 -74 -2 -75 -44 -114 -30 -29 -42 -48 -42 -68 0 -57 -74 -132 -144 -145 -18
-4 -50 -22 -70 -41 -25 -23 -50 -36 -80 -40 -54 -8 -83 0 -118 32 l-27 26 -31
-26 c-32 -28 -89 -43 -116 -33 -14 5 -16 1 -11 -34 7 -52 20 -68 82 -96 83
-39 105 -34 300 76 89 50 143 79 210 115 119 64 153 88 174 126 20 35 21 52
21 368 0 352 -1 362 -49 405 -23 21 -26 12 -11 -28 5 -14 6 -26 2 -26 -4 0
-39 18 -79 40 -66 36 -73 37 -78 20z"/>
<path d="M2521 2898 c-1 -33 15 -46 22 -18 3 11 1 18 -3 15 -5 -3 -11 3 -13
12 -3 12 -5 8 -6 -9z"/>
<path d="M2920 2911 c0 -6 4 -13 10 -16 6 -3 7 1 4 9 -7 18 -14 21 -14 7z"/>
<path d="M2125 2830 c3 -5 8 -10 11 -10 2 0 4 5 4 10 0 6 -5 10 -11 10 -5 0
-7 -4 -4 -10z"/>
<path d="M2844 2818 l-19 -23 23 19 c21 18 27 26 19 26 -2 0 -12 -10 -23 -22z"/>
<path d="M2870 2769 c0 -5 5 -7 10 -4 6 3 10 8 10 11 0 2 -4 4 -10 4 -5 0 -10
-5 -10 -11z"/>
<path d="M2070 2740 c0 -5 5 -10 10 -10 6 0 10 5 10 10 0 6 -4 10 -10 10 -5 0
-10 -4 -10 -10z"/>
<path d="M2970 2744 c0 -5 7 -19 15 -30 8 -10 15 -14 15 -8 0 5 -7 19 -15 30
-8 10 -15 14 -15 8z"/>
<path d="M2790 2714 c35 -7 98 -9 94 -2 -3 5 -29 7 -57 7 -29 -1 -45 -3 -37
-5z"/>
<path d="M2620 2693 c-33 -6 -80 -51 -73 -70 5 -12 7 -12 15 -1 7 9 8 7 5 -8
-4 -19 0 -22 24 -20 16 1 38 12 49 24 20 21 27 37 12 28 -5 -3 -9 1 -9 9 0 11
4 12 14 3 10 -8 17 -7 28 8 8 10 15 22 15 27 0 12 -28 8 -33 -5 -4 -10 -6 -10
-6 0 -1 6 -4 11 -8 11 -5 -1 -19 -4 -33 -6z"/>
<path d="M2990 2631 c-19 -37 -41 -52 -64 -45 -16 5 -13 0 12 -20 27 -23 32
-35 32 -71 0 -32 -6 -48 -26 -69 -15 -14 -31 -26 -36 -26 -5 0 -6 -5 -3 -11 9
-13 51 25 71 63 18 35 18 62 -1 99 -14 26 -14 30 -1 35 8 3 19 19 25 35 11 33
7 38 -9 10z"/>
<path d="M2840 2565 c13 -14 26 -25 28 -25 3 0 -5 11 -18 25 -13 14 -26 25
-28 25 -3 0 5 -11 18 -25z"/>
<path d="M2649 2543 c25 -10 66 -65 72 -97 l6 -31 2 31 c1 21 -7 38 -24 54
-14 13 -25 27 -25 32 0 4 24 8 53 8 46 0 57 -4 82 -30 16 -16 32 -30 36 -30 4
0 -9 16 -28 35 -34 34 -37 35 -111 34 -43 0 -71 -3 -63 -6z"/>
<path d="M2140 2530 c0 -5 5 -10 10 -10 6 0 10 5 10 10 0 6 -4 10 -10 10 -5 0
-10 -4 -10 -10z"/>
<path d="M2631 2494 c0 -11 3 -14 6 -6 3 7 2 16 -1 19 -3 4 -6 -2 -5 -13z"/>
<path d="M1798 2465 c-11 -20 -19 -85 -10 -85 6 0 9 -8 8 -17 -1 -20 50 -32
104 -23 l35 6 -42 14 c-51 16 -68 33 -80 80 -5 19 -12 30 -15 25z"/>
<path d="M2632 2445 c0 -16 2 -22 5 -12 2 9 2 23 0 30 -3 6 -5 -1 -5 -18z"/>
<path d="M2583 2415 c0 -22 2 -30 4 -17 2 12 2 30 0 40 -3 9 -5 -1 -4 -23z"/>
<path d="M2527 2423 c-2 -5 -5 -27 -6 -51 -2 -38 0 -43 17 -38 24 8 59 -29 65
-69 4 -30 4 -29 6 4 1 28 -6 41 -36 69 -30 27 -37 40 -35 63 3 27 -2 38 -11
22z"/>
<path d="M2670 2385 c13 -14 26 -25 28 -25 3 0 -5 11 -18 25 -13 14 -26 25
-28 25 -3 0 5 -11 18 -25z"/>
<path d="M2758 2403 c17 -2 47 -2 65 0 17 2 3 4 -33 4 -36 0 -50 -2 -32 -4z"/>
<path d="M2883 2353 c3 -28 -2 -49 -21 -78 l-24 -40 27 26 c30 29 47 110 26
124 -8 5 -11 -5 -8 -32z"/>
<path d="M2427 2327 c-42 -52 -87 -141 -87 -174 0 -19 6 -23 30 -23 42 0 89
26 95 53 3 12 5 60 3 106 l-3 84 -38 -46z"/>
<path d="M2600 2367 c0 -3 15 -22 34 -40 19 -19 36 -43 39 -53 4 -17 5 -17 6
1 1 12 -16 38 -39 60 -22 21 -40 36 -40 32z"/>
<path d="M2168 2321 c-32 -14 -58 -30 -58 -34 0 -14 60 -67 76 -67 8 0 14 10
14 24 0 13 7 40 16 61 8 20 14 38 12 40 -2 1 -29 -10 -60 -24z"/>
<path d="M2719 2338 c8 -11 25 -17 45 -17 l31 2 -30 4 c-16 3 -37 10 -45 16
-13 10 -13 10 -1 -5z"/>
<path d="M2522 2271 c1 -22 4 -38 8 -36 11 6 10 64 -1 70 -5 4 -8 -12 -7 -34z"/>
<path d="M2729 2283 c-4 -43 -10 -67 -20 -80 -11 -13 -15 -12 -31 9 -9 13 -18
18 -18 12 0 -6 7 -17 15 -24 8 -7 15 -20 15 -29 1 -35 46 39 48 79 2 22 0 40
-3 40 -3 0 -5 -3 -6 -7z"/>
<path d="M1980 2266 l-75 -11 35 -26 c62 -47 274 -154 267 -135 -4 10 -7 31
-7 47 0 23 -7 32 -40 49 -21 11 -52 36 -67 55 -15 19 -30 34 -33 34 -3 -1 -39
-7 -80 -13z"/>
<path d="M2772 2232 c-18 -2 -30 -7 -27 -12 3 -5 18 -5 34 0 16 4 32 6 34 3 3
-2 7 0 11 5 5 9 3 9 -52 4z"/>
<path d="M2535 2200 c3 -13 13 -32 23 -42 19 -20 82 -33 82 -17 0 5 -11 9 -25
9 -24 0 -35 9 -69 55 -15 19 -15 19 -11 -5z"/>
</g>
</svg>
