<svg width="30" height="30" viewBox="0 0 30 30" fill="none" xmlns="http://www.w3.org/2000/svg">
<g clip-path="url(#clip0_play)">
<path d="M15 0C6.71573 0 0 6.71573 0 15C0 23.2843 6.71573 30 15 30C23.2843 30 30 23.2843 30 15C30 6.71573 23.2843 0 15 0ZM15 27.8571C7.89844 27.8571 2.14286 22.1016 2.14286 15C2.14286 7.89844 7.89844 2.14286 15 2.14286C22.1016 2.14286 27.8571 7.89844 27.8571 15C27.8571 22.1016 22.1016 27.8571 15 27.8571Z" fill="#FF6B35"/>
<path d="M11.7857 8.57143V21.4286L21.4286 15L11.7857 8.57143Z" fill="#FF6B35"/>
</g>
<defs>
<clipPath id="clip0_play">
<rect width="30" height="30" fill="white"/>
</clipPath>
</defs>
</svg>
